<svg width="521" height="307" viewBox="0 0 521 307" fill="none" xmlns="http://www.w3.org/2000/svg">
<path d="M493.254 233.2C482.154 219.9 469.554 207.9 457.354 196.4C453.054 192.3 448.654 188.2 444.354 184C438.654 178.4 435.854 174.4 435.554 171.5C435.254 168.6 437.254 164.3 441.754 158C448.554 148.5 455.754 139 462.754 129.8C468.954 121.6 475.354 113.2 481.554 104.7L482.954 102.8C494.954 86.2 507.354 69 513.954 48.1C515.854 42.1 517.854 33.2 513.054 25.4C508.254 17.6 499.454 15.3 493.254 14.2C490.254 13.7 487.354 13.6 484.654 13.6L406.854 13.5C393.354 13.3 384.054 19.7 378.954 32.5C374.854 42.7 370.054 54.6 364.554 65.8C353.854 87.5 340.354 112.5 320.754 133.3L319.854 134.2C318.554 135.6 316.354 138 315.254 138.5C313.154 137.2 310.654 129.5 310.754 125.5V125.2L310.654 35.3C310.654 34.8 310.654 34.4 310.554 33.9C308.854 21.1 305.454 8.20001 285.154 4.20001C284.454 4.10001 283.854 4 283.154 4H202.254C187.054 4 178.954 11 172.554 18.5C170.654 20.7 165.754 26.6 168.254 33.7C170.854 40.9 178.454 42.4 180.954 42.9C189.754 44.6 194.354 49.6 195.754 59.1C198.554 77.6 198.854 97.4 196.854 121.4C196.254 127.8 195.254 132.7 193.454 136.8C192.954 137.9 192.554 138.6 192.254 139C191.754 138.8 191.054 138.5 190.054 137.8C183.854 133.6 179.154 127 174.654 120.6C156.654 95.1 141.454 67 128.254 34.6C122.854 21.3 112.654 13.9 99.554 13.7C74.654 13.3 51.554 13.3 29.054 13.7C18.454 13.9 11.054 17.2 6.95402 23.6C2.85402 30 3.05402 38.2 7.35402 47.9C38.554 117.3 66.854 167.7 99.154 211.5C121.954 242.3 144.854 263.7 171.254 278.9C199.054 294.8 230.354 302.6 266.654 302.6C270.754 302.6 274.954 302.5 279.254 302.3C301.654 301.3 310.754 292.4 311.754 270.5C312.354 259 313.554 249.6 318.054 241.5C319.254 239.2 320.754 237.7 321.854 237.4C323.054 237.1 325.154 237.8 327.454 239.3C331.654 242.1 335.354 245.8 338.354 249.1C341.354 252.4 344.454 255.9 347.454 259.2C353.754 266.3 360.354 273.6 367.254 280.6C382.754 296.4 400.754 303.7 420.554 302.2H492.454C500.654 301.7 507.754 297.1 511.954 289.7C516.954 280.8 516.854 269.5 511.754 259.6C506.454 249.5 499.454 240.6 493.254 233.2V233.2ZM494.254 280C493.254 281.7 492.054 282.1 491.454 282.1H419.454C405.454 283.3 393.554 278.3 381.954 266.6C375.454 259.9 369.054 252.8 362.854 245.9C359.854 242.5 356.754 239 353.554 235.6C349.654 231.4 344.854 226.5 338.654 222.5C329.454 216.5 321.754 216.7 316.954 217.9C312.254 219.1 305.454 222.5 300.254 231.9C293.554 244.1 292.054 257.3 291.454 269.8C291.154 277.4 289.854 279.4 289.254 279.9C288.554 280.6 286.154 281.7 278.354 282.1C240.554 283.9 208.854 277.1 181.454 261.4C157.554 247.7 136.654 228.1 115.654 199.6C84.254 157.1 56.654 107.8 26.054 39.8C24.954 37.3 24.554 35.8 24.554 35C25.354 34.7 26.854 34.4 29.554 34.4C51.754 34 74.654 34 99.354 34.4C102.754 34.5 106.554 35.5 109.454 42.6C123.254 76.5 139.154 105.9 158.054 132.7C163.054 139.8 169.354 148.6 178.554 154.9C186.954 160.7 193.854 160.4 198.054 159.2C202.354 158 208.254 154.5 212.254 145.1C214.854 139 216.354 132.2 217.154 123.5C219.354 97.8 218.954 76.5 215.954 56.4C213.854 42 206.354 31.6 194.654 26.3C196.754 25.2 199.054 24.8 202.354 24.8H282.254C286.754 25.8 287.654 27 287.954 27.4C289.254 29.1 289.954 33.2 290.454 36.4L290.554 125.5C290.354 134 294.554 153 308.654 158.2C308.754 158.2 308.854 158.3 309.054 158.3C321.954 162.5 330.454 153.4 334.954 148.5L335.754 147.6C357.254 124.8 371.754 98.1 383.054 75.1C388.954 63.2 393.954 50.9 398.154 40.3C400.254 35 402.154 34.1 406.754 34.2H406.954L484.854 34.3C486.654 34.3 488.554 34.3 490.054 34.6C493.754 35.2 495.254 36 495.754 36.3C495.854 36.9 495.754 38.6 494.654 42.1C488.954 59.9 478.054 75 466.554 91L465.154 92.9C459.154 101.2 452.754 109.6 446.654 117.7C439.554 127 432.254 136.7 425.354 146.4C410.554 167.1 411.854 180.8 430.354 198.8C434.754 203.1 439.154 207.3 443.554 211.4C455.854 223 467.454 234 477.754 246.4C483.154 252.9 489.354 260.8 493.754 269.4C496.054 273.8 495.454 277.9 494.254 280V280Z" fill="rgba(0, 0, 0, 0.4)" stroke="rgba(0, 0, 0, 0.4)" stroke-width="8" stroke-miterlimit="10"/>
</svg>
